<?xml version="1.0" standalone="no"?>
<!DOCTYPE svg PUBLIC "-//W3C//DTD SVG 20010904//EN"
 "http://www.w3.org/TR/2001/REC-SVG-20010904/DTD/svg10.dtd">
<svg version="1.0" xmlns="http://www.w3.org/2000/svg"
 width="1203.000000pt" height="1203.000000pt" viewBox="0 0 1203.000000 1203.000000"
 preserveAspectRatio="xMidYMid meet">
<metadata>
Created by potrace 1.14, written by Peter Selinger 2001-2017
</metadata>
<g transform="translate(0.000000,1203.000000) scale(0.100000,-0.100000)"
fill="#000000" stroke="none">
<path d="M4088 10204 c-2 -1 -58 -5 -125 -8 -67 -4 -130 -8 -140 -10 -10 -2
-54 -7 -97 -11 -43 -4 -88 -8 -99 -10 -10 -3 -45 -7 -76 -11 -31 -3 -65 -8
-76 -10 -11 -2 -63 -11 -115 -20 -52 -9 -108 -18 -125 -21 -58 -10 -281 -62
-355 -83 -41 -12 -85 -23 -97 -26 -11 -2 -96 -29 -187 -59 -522 -173 -988
-423 -1356 -728 -117 -97 -323 -305 -413 -418 -254 -316 -408 -655 -471 -1033
-23 -135 -23 -397 -1 -546 41 -277 170 -604 334 -850 130 -195 304 -391 486
-549 l100 -87 -11 -69 c-6 -39 -14 -88 -17 -110 -7 -50 -25 -162 -32 -194 -2
-12 -7 -42 -9 -65 -3 -22 -8 -54 -11 -71 -13 -69 -28 -161 -40 -250 -2 -11 -6
-33 -8 -50 -11 -64 -20 -121 -23 -142 -1 -12 -5 -34 -8 -50 -3 -15 -8 -43 -11
-60 -3 -18 -7 -46 -10 -63 -5 -29 -4 -29 22 -19 16 6 78 28 138 50 61 21 119
43 130 48 35 15 94 38 295 111 107 40 218 80 245 91 28 11 156 59 286 107
l236 88 106 -35 c58 -20 111 -38 119 -40 7 -2 72 -21 143 -42 72 -21 141 -40
155 -43 14 -3 88 -19 165 -36 77 -16 160 -33 185 -36 25 -3 47 -8 50 -9 3 -2
26 -6 50 -10 25 -3 70 -10 100 -15 30 -5 84 -12 120 -15 36 -4 66 -8 66 -8 1
-1 4 -49 8 -107 3 -58 8 -118 11 -135 10 -59 15 -91 21 -130 21 -138 113 -390
206 -565 45 -84 161 -267 202 -317 8 -10 38 -47 67 -83 67 -82 294 -312 361
-365 28 -22 60 -49 72 -59 41 -37 202 -153 291 -211 357 -232 778 -420 1220
-545 185 -53 438 -111 545 -125 19 -3 58 -10 85 -15 87 -17 340 -46 475 -56
185 -12 243 -14 450 -13 265 0 433 8 570 24 19 2 60 7 90 10 30 4 66 8 80 10
21 3 59 8 155 20 11 1 34 5 50 8 17 4 46 9 65 12 139 23 546 120 608 146 17 7
43 1 110 -25 48 -19 323 -125 612 -236 289 -111 531 -205 538 -207 9 -4 11 3
8 23 -9 49 -14 86 -26 169 -12 85 -16 112 -24 160 -3 17 -8 53 -11 80 -4 28
-8 57 -10 65 -2 8 -7 35 -10 60 -4 25 -19 129 -34 232 l-28 187 91 62 c166
113 299 223 451 374 166 164 182 183 271 300 206 273 351 587 410 889 41 209
41 520 0 721 -3 17 -8 39 -10 50 -9 45 -49 187 -64 225 -3 8 -6 17 -7 20 -1 3
-7 19 -14 35 -6 17 -17 44 -23 60 -12 30 -124 252 -143 284 -246 402 -636 767
-1120 1046 -96 56 -313 167 -385 198 -19 8 -51 22 -70 30 -95 42 -253 101
-392 147 -135 45 -418 124 -488 136 -14 2 -54 11 -90 19 -36 8 -81 17 -100 20
-52 9 -82 14 -109 20 -21 4 -107 16 -221 31 -74 9 -100 15 -101 22 -1 4 -2 36
-4 72 -2 58 -7 112 -20 205 -23 178 -108 437 -203 620 -42 80 -147 250 -174
281 -10 11 -18 25 -18 31 0 6 -3 13 -8 15 -4 2 -26 28 -50 58 -339 429 -847
792 -1472 1050 -209 87 -623 217 -773 244 -15 2 -35 7 -45 10 -9 3 -28 7 -42
10 -14 3 -50 10 -80 16 -30 6 -68 13 -85 16 -16 2 -37 7 -45 9 -8 2 -35 7 -60
10 -25 2 -54 7 -66 9 -12 2 -45 7 -75 11 -30 3 -65 8 -79 10 -14 2 -54 7 -90
10 -36 3 -85 8 -110 10 -134 14 -211 17 -472 19 -158 2 -289 2 -290 0z"/>
</g>
</svg>
